<?xml version="1.0" encoding="utf-8"?>
<!-- Generator: Adobe Illustrator 25.0.1, SVG Export Plug-In . SVG Version: 6.00 Build 0)  -->
<svg version="1.1" id="Layer_1" xmlns="http://www.w3.org/2000/svg" xmlns:xlink="http://www.w3.org/1999/xlink" x="0px" y="0px"
	 viewBox="0 0 382.8 72.6" style="enable-background:new 0 0 382.8 72.6;" xml:space="preserve">
<style type="text/css">
	.st0{fill:#525252;}
</style>
<g>
	<g>
		<path class="st0" d="M17.1,53.7c-2.1-1.6-3.2-3.9-3.2-6.9c0-8.5,9.3-19.2,20.6-26.2c5.5-3.4,10.6-5.2,14.3-5.2
			c1.9,0,3.2,0.5,4.6,2.2c1.9,2.3,1.7,3.2,1.1,3.4c-19.2,6.1-34.2,19.3-35,29.1c0.3,0.2,0.8,0.2,1.4,0.2c4.8,0,13.5-3.5,18.9-7.6
			c0.5-0.4,0.7-0.3,0.7,0.1c0,1.4-0.6,3.5-1.6,4.6c-4.9,5.7-11.3,9.4-16.3,9.4C20.2,56.6,18.5,55.8,17.1,53.7z"/>
		<path class="st0" d="M56.7,58.2c4.3-6.3,8.9-13.1,13.3-19.6c-3.5,0.7-7.4,1.4-10.7,1.9c-2.8,4-5.6,8-8,11.1
			c-1.7,2.3-2.4,2.9-4.5,3.9c-1.3,0.6-4.2,1.3-6.8,2c-0.8,0.3-1.5,0.1-0.7-1.1c3-4.9,6.2-9.9,9.7-15.1c-0.1,0-0.1-0.1-0.2-0.1
			c-0.6-0.5-1-1.8-1.1-2.7c-0.1-0.5,0.2-0.6,0.7-0.7c1-0.2,2.2-0.3,3.3-0.5c4.5-6.5,9.4-13.4,14.6-20.5c0.6-0.7,1.2-1,1.8-0.5
			c1,1,1.7,2.4,2.7,4.1c0.6,1.1,0.5,1.9-0.8,3.9c-1.9,3-4.6,7.2-7.5,11.5c3.5-0.5,7.1-1,10.3-1.4c5.7-8.6,10.6-15.8,12.5-18.4
			c0.4-0.6,0.7-0.7,1.1-0.5c0.8,0.5,1.9,1.7,3,2.6c1,0.9,1.4,2.3,0.3,3.9C86.1,27.5,71.5,49.7,66.9,56c-0.8,1-1.5,1.5-3,1.8
			c-2.3,0.4-5.7,1.4-6.7,1.4C56.2,59.1,56.2,58.8,56.7,58.2z"/>
		<path class="st0" d="M87.8,54.8c-3.6-2.3-4.7-4.4-4.7-8.5c0-4.6,2.2-9.8,5.6-14.7C95,22.7,105.1,16,110.5,16
			c2.1,0,3.7,1.1,4.8,2.6c2.4,1.2,4.1,4.1,4.1,8.6c0,3.7-1.5,8.9-3.8,13c-6.4,11.3-15.9,16.7-22,16.7C91.9,56.9,89.7,56,87.8,54.8z
			 M91.7,51c11.1-2.3,23.8-16,23.8-25.9c0-2-0.5-3.5-1.5-4.4c-6,2.6-11.8,7.2-17.6,15.1C93.6,39.5,90.8,46.8,91.7,51z"/>
		<path class="st0" d="M138.6,56.7c-2.2-3.4-5.4-9.2-8.8-16.2c-2.8,3.9-6,8.1-9.3,12.4c-0.8,1.1-1.6,1.6-3.3,1.9
			c-2.2,0.2-5.2,1-6.1,1c-0.5,0-0.5-0.4-0.2-0.9c5.6-9,13.1-19.7,21.4-31.3c-0.1-1.5-0.7-3.6-1.3-5.2c-0.2-0.6,0-1.2,1.1-1.4
			c3-0.6,5.5-1,8.5-1c5.3,0,9.2,1,11.5,3.9c1.2,1.4,2.4,3.4,2.4,5.3c0,6.3-6.1,11.8-16.1,15.8c1.1,2.8,2.2,5.4,3.2,8.1
			c0.4,1,0.7,1.9,0.7,2.8c0,1.4-0.8,2.2-2.3,4.3C139.6,57,139,57.3,138.6,56.7z M133.3,35.7c9.2-2.8,16.4-7.9,17.5-13.1
			c-1-0.7-2.4-1-4.2-1c-2,0-4.6,0.3-7.2,1c0.6,1.1,0.9,2.4,0.4,3.2C138.2,28.5,135.9,31.9,133.3,35.7z"/>
		<path class="st0" d="M147.8,55.4c-1.3-1.7-2.4-2.7-1.3-4.9c3.7-7.2,11.6-17.9,17.9-26.5L164,24c-0.7,0.1-1.3-0.2-1.7-0.6
			c-0.7-0.7-1.4-2.3-1.6-3.5c-0.1-0.5,0.1-0.6,0.6-0.7c2.3-0.4,4.8-0.7,7.4-1c0.7-1,1.4-1.9,2-2.8c0.9-1.1,1.6-1.2,2.2-0.9
			c1,0.7,1.9,2,3.1,3c5.7-0.5,11.7-0.8,17.1-0.9c0.3,0,0.4,0.1,0.4,0.3c0,0.4-0.2,1.3-0.6,1.8c-0.4,0.6-0.9,0.8-2,1
			c-4.5,0.9-10.5,1.9-16.4,2.8c-2.2,3.4-4.9,7.5-8,11.9c4.7-0.5,9.9-0.9,13.3-1.1c0.4,0,0.5,0.2,0.4,0.4c-0.2,0.7-1,1.8-1.3,2.1
			c-0.8,0.8-1.4,1-2.8,1.3c-3.3,0.7-8.5,1.6-13,2.3l-8.5,12.3c5.8-0.8,11.9-1.6,17.6-2.3c0.7-0.1,1,0.1,1,0.3c0,0.3-0.3,0.9-0.5,1.8
			c-0.1,0.6-0.2,0.7-1.6,1.3c-4.2,1.5-11.2,3.4-16,4.3c-1.5,0.3-3,0.5-3.6,0.5C149.4,57.7,148.8,56.7,147.8,55.4z"/>
	</g>
	<g>
		<path class="st0" d="M193.3,56.9c-0.9-0.2-1.1-0.8-0.7-1.5c0.4-0.6,1.9-2.6,3.2-4c-1.8-1.1-2-1.6-1.4-2.7
			c3.4-5.2,12.6-18.9,17.7-25.9c-1-0.9-1.8-2.5-2.3-4.2c-0.2-0.6-0.1-1,1.2-1.4c2.9-0.9,6.4-1.4,10-1.4c3.9,0,6.8,0.6,8.8,1.8
			c3.6,2.1,4.4,6.8,2.4,10.2c-2,3.4-4.9,6.4-8.9,8.2c1.8,1.2,3,2.7,3.2,4.7c0.4,2.9-0.9,5.6-3.4,8.1c-4.8,4.8-14.3,8.8-23.1,8.8
			C197.8,57.7,195.2,57.4,193.3,56.9z M222.6,40.8c-1.5-1.8-5.7-2.9-11.4-3.2c-2.8,4.4-5.9,9-8.4,12.6
			C213.7,49.9,221.9,45.9,222.6,40.8z M230.5,23.3c-0.7-1-2.9-1.5-5.7-1.5c-2,0-4.3,0.3-6.7,1.1c0.5,1.1,0.5,2,0.1,2.8
			c-1,2-2.4,4.4-4,7.1C223.2,31.4,229,27.5,230.5,23.3z"/>
		<path class="st0" d="M232.1,51.9c-2.8-4.4-2.4-12.5,6.1-22.9c5.2-6.3,14.3-13.4,19.8-13.4c1.6,0,3.2,0.7,4.8,1.8
			c0.9,0.6,1.8,1.3,1.8,1.9c0,0.4-0.5,0.7-1.2,1c2.2,1.4,3.5,3.9,3.5,7c0,4.2-1.5,9.8-6,15.9c-5.4,7.3-13.4,13.2-20.6,13.2
			C236.7,56.4,234,54.8,232.1,51.9z M239.7,51.3c4.9-1.1,12.2-5.6,16.9-11.3c4.9-5.9,6.1-11,6.1-13.6c0-2.4-0.9-4-2.4-4.6
			c-5.1,2.7-11.5,7.4-16.5,14.6C239.4,42.6,238.1,48.6,239.7,51.3z"/>
		<path class="st0" d="M284.4,58.4c0.9-5.3,2.5-11.9,4.4-18.1c-6.1,2.2-11.7,4.5-16.1,6.7c-3.6,4.4-4.9,6.7-5.6,9.1
			c-0.2,0.6-0.3,1-0.7,1c-0.5,0-2.1-0.7-3.8-2.1c-2.4-1.9-2.3-3.9,0.3-7.6c6-8.2,21.6-23.8,27.3-28.3c3.5-2.7,4.6-3.4,6-3.4
			c1,0,2.8,1,4.7,1.5c2.3,0.7,2.8,2.2,1.6,4.3c-2.3,4.1-4.5,8.8-6.5,13.6c0.2,0.1,0.5,0.3,0.7,0.5c0.7,0.7,0.9,1.1,0.9,1.4
			c0,0.2-0.1,0.3-1.4,0.7l-1.5,0.5c-2.2,5.5-4.2,11.3-6,17c-0.5,1.6-1.1,2.1-2,2.7c-0.3,0.2-1,0.6-1.5,0.9
			C284.8,59.1,284.3,59.1,284.4,58.4z M290.1,36.2c1.5-4.5,3-8.6,4.4-11.9c-4.2,3.7-9.7,9-15.1,15C282.8,38.1,286.4,37.1,290.1,36.2
			z"/>
		<path class="st0" d="M321,56.7c-2.2-3.4-5.4-9.2-8.8-16.2c-2.8,3.9-6,8.1-9.3,12.4c-0.8,1.1-1.6,1.6-3.3,1.9c-2.2,0.2-5.2,1-6.1,1
			c-0.5,0-0.5-0.4-0.2-0.9c5.6-9,13.1-19.7,21.4-31.3c-0.1-1.5-0.7-3.6-1.3-5.2c-0.2-0.6,0-1.2,1.1-1.4c3-0.6,5.5-1,8.5-1
			c5.3,0,9.2,1,11.5,3.9c1.2,1.4,2.4,3.4,2.4,5.3c0,6.3-6.1,11.8-16.1,15.8c1.1,2.8,2.2,5.4,3.2,8.1c0.4,1,0.7,1.9,0.7,2.8
			c0,1.4-0.8,2.2-2.3,4.3C322,57,321.4,57.3,321,56.7z M315.6,35.7c9.2-2.8,16.4-7.9,17.5-13.1c-1-0.7-2.4-1-4.2-1
			c-2,0-4.6,0.3-7.2,1c0.6,1.1,0.9,2.4,0.4,3.2C320.5,28.5,318.3,31.9,315.6,35.7z"/>
		<path class="st0" d="M326.6,52.9c-0.3-1.1-0.1-1.5,0.6-1.6c1.5-0.1,2.8-0.2,4.3-0.3c-1.3-1.6-1.5-2.5-0.9-3.5
			c6-9.1,11.3-16.5,17-24.6c-0.7-1.4-1.7-2.8-2.4-3.7c-0.5-0.6-0.7-1.4,0.1-1.6c2-0.4,4.2-0.7,6.6-0.7l2.2-3.1
			c0.4-0.5,0.8-0.6,2.2,0.9c1,1,1.7,1.9,1.9,2.9c4.2,1,8,3.4,9.8,8c1.6,4.3,1,9.2-3.4,15.1c-6.7,9.3-20.5,16.9-32.6,16.9
			C328.4,57.6,327.4,55.9,326.6,52.9z M365.9,27.3c-1.7-3-5.5-4.2-10.1-4.3C350.4,32,344.6,41,339,49.6
			C355.6,45.5,364.9,34.6,365.9,27.3z"/>
	</g>
</g>
</svg>
